Coordinates
version=1
nRows=43
nColumns=12
inDegrees=yes

Units are S.I. units (second, meters, Newtons, ...)
Angles are in degrees

endheader
time	SC_y	SC_z	SC_x	AC_y	AC_z	AC_x	GH_y	GH_z	GH_yy	EL_x	PS_y
       0.0              -52.73         -1.691          14.97          46.86          2.169         -16.39         -125.2          60.39         -171.8          121.2          131.4
   0.03001              -52.73         -1.687          14.98          46.86          2.168         -16.39         -125.2          60.38         -171.8          121.2          131.4
   0.06003              -52.72         -1.683          14.99          46.86          2.166         -16.39         -125.2          60.37         -171.8          121.2          131.3
   0.09004              -52.71         -1.678           15.0          46.86          2.165         -16.38         -125.1          60.36         -171.8          121.2          131.3
    0.1201              -52.71         -1.673          15.01          46.86          2.163         -16.38         -125.1          60.35         -171.8          121.2          131.3
    0.1501               -52.7         -1.667          15.03          46.87          2.162         -16.38         -125.1          60.33         -171.8          121.1          131.3
    0.1801              -52.69         -1.661          15.04          46.87           2.16         -16.38         -125.1          60.32         -171.7          121.1          131.3
    0.2101              -52.69         -1.655          15.05          46.87          2.158         -16.37         -125.1           60.3         -171.7          121.1          131.3
    0.2401              -52.68         -1.649          15.07          46.87          2.156         -16.37         -125.1          60.29         -171.7          121.1          131.3
    0.2701              -52.67         -1.641          15.08          46.88          2.154         -16.36         -125.0          60.27         -171.7          121.0          131.3
    0.3001              -52.66         -1.634           15.1          46.88          2.152         -16.36         -125.0          60.25         -171.7          121.0          131.3
    0.3302              -52.65         -1.625          15.12          46.88           2.15         -16.36         -125.0          60.23         -171.7          121.0          131.3
    0.3602              -52.64         -1.617          15.14          46.89          2.147         -16.35         -125.0          60.21         -171.7          120.9          131.3
    0.3902              -52.63         -1.607          15.16          46.89          2.144         -16.34         -124.9          60.19         -171.6          120.9          131.3
    0.4202              -52.61         -1.597          15.18          46.89          2.141         -16.34         -124.9          60.16         -171.6          120.9          131.3
    0.4502               -52.6         -1.585          15.21           46.9          2.138         -16.33         -124.9          60.13         -171.6          120.8          131.2
    0.4802              -52.58         -1.573          15.24           46.9          2.134         -16.33         -124.8           60.1         -171.6          120.8          131.2
    0.5102              -52.57          -1.56          15.27          46.91           2.13         -16.32         -124.8          60.07         -171.6          120.7          131.2
    0.5403              -52.55         -1.545           15.3          46.91          2.126         -16.31         -124.8          60.04         -171.5          120.7          131.2
    0.5703              -52.53         -1.529          15.33          46.92          2.121          -16.3         -124.7           60.0         -171.5          120.6          131.2
    0.6003              -52.51         -1.512          15.37          46.93          2.116         -16.29         -124.7          59.95         -171.5          120.5          131.2
    0.6303              -52.49         -1.492          15.42          46.93           2.11         -16.28         -124.6          59.91         -171.4          120.5          131.1
    0.6603              -52.46         -1.471          15.46          46.94          2.104         -16.27         -124.6          59.86         -171.4          120.4          131.1
    0.6903              -52.43         -1.448          15.52          46.95          2.097         -16.25         -124.5           59.8         -171.3          120.3          131.1
    0.7203               -52.4         -1.421          15.58          46.96          2.089         -16.24         -124.4          59.74         -171.3          120.2          131.1
    0.7504              -52.36         -1.392          15.64          46.97          2.081         -16.22         -124.3          59.66         -171.2          120.1          131.0
    0.7804              -52.32         -1.359          15.71          46.99          2.071          -16.2         -124.2          59.58         -171.2          119.9          131.0
    0.8104              -52.27         -1.322           15.8           47.0           2.06         -16.18         -124.1           59.5         -171.1          119.8          131.0
    0.8404              -52.22         -1.281          15.89          47.02          2.048         -16.16         -124.0          59.39         -171.0          119.6          130.9
    0.8704              -52.16         -1.233          15.99          47.04          2.034         -16.13         -123.9          59.28         -170.9          119.5          130.9
    0.9004               -52.1         -1.179          16.11          47.06          2.018          -16.1         -123.7          59.15         -170.8          119.2          130.8
    0.9304              -52.02         -1.117          16.25          47.08            2.0         -16.07         -123.5           59.0         -170.7          119.0          130.7
    0.9605              -51.93         -1.046          16.41          47.11          1.979         -16.03         -123.3          58.82         -170.6          118.7          130.7
    0.9905              -51.83        -0.9627           16.6          47.14          1.954         -15.98         -123.1          58.62         -170.4          118.4          130.6
      1.02              -51.71        -0.8654          16.82          47.18          1.925         -15.93         -122.8          58.39         -170.2          118.0          130.5
     1.051              -51.57        -0.7508          17.07          47.22          1.892         -15.86         -122.5          58.11         -170.0          117.6          130.4
     1.081               -51.4        -0.6145          17.38          47.28          1.851         -15.78         -122.1          57.78         -169.8          117.0          130.2
     1.111               -51.2        -0.4511          17.74          47.34          1.803         -15.69         -121.6          57.38         -169.4          116.4          130.0
     1.141              -50.95        -0.2535          18.18          47.42          1.745         -15.58         -121.1           56.9         -169.1          115.6          129.8
     1.171              -50.66       -0.01205          18.72          47.51          1.674         -15.44         -120.4          56.31         -168.6          114.7          129.6
     1.201              -50.29         0.2859          19.38          47.63          1.586         -15.28         -119.5          55.59         -168.0          113.5          129.3
     1.231              -49.83         0.6575          20.21          47.77          1.476         -15.07         -118.5          54.69         -167.3          112.1          128.9
     1.261              -49.25          1.126          21.26          47.96          1.338          -14.8         -117.2          53.55         -166.5          110.3          128.4
